<svg width="347" height="347" viewBox="0 0 347 347" fill="none" xmlns="http://www.w3.org/2000/svg">
<g clip-path="url(#clip0_48_11968)">
<path fill-rule="evenodd" clip-rule="evenodd" d="M217.165 202.906C217.165 202.906 245.801 140.961 300.964 100.234L307.664 99.9756C307.78 94.6992 309.16 89.598 311.696 85.0705C311.696 85.0705 303.762 84.9815 295.769 78.2627L269.536 113.205C269.536 113.205 217.631 174.137 205.114 197.858C205.166 197.863 203.636 204.023 217.165 202.906Z" fill="black"/>
<path fill-rule="evenodd" clip-rule="evenodd" d="M165.599 178.236C165.599 178.236 162.408 139.831 120.998 124.999C79.5876 110.167 44.3463 128.325 31.0159 148.28C17.6856 168.234 5.16985 205.167 36.699 244.082C36.699 244.082 61.7858 286.442 118.323 277.505C118.323 277.505 131.84 276.106 134.062 265.796L165.599 178.236Z" fill="#9F1239"/>
<path fill-rule="evenodd" clip-rule="evenodd" d="M228.009 184.166C228.009 184.166 195.582 159.638 165.815 170.405C165.815 170.405 131.142 181.377 122.146 221.911C122.146 221.911 111.672 278.415 165.863 308.189C165.863 308.189 206.651 329.925 238.993 306.789C238.993 306.789 283.629 279.255 277.567 233.792C277.586 233.798 272.534 203.962 228.009 184.166Z" fill="#F43F5E"/>
<path fill-rule="evenodd" clip-rule="evenodd" d="M147.273 167.067C147.273 167.067 139.071 164.368 141.632 154.015L239.202 99.213L245.112 103.478L147.273 167.067Z" fill="black"/>
<path fill-rule="evenodd" clip-rule="evenodd" d="M220.978 28.544C247.639 31.87 341.233 68.0855 344.653 71.4412C311.89 84.6822 169.576 58.5796 148.65 55.5088C166.749 27.8988 194.316 25.218 220.978 28.544Z" fill="#28A745" fill-opacity="0.5"/>
<path fill-rule="evenodd" clip-rule="evenodd" d="M344.219 71.337L344.427 71.526C342.226 76.4634 333.38 85.065 333.38 85.065C293.737 125.031 231.755 100.464 231.755 100.464C172.574 85.0526 148.65 55.5087 148.65 55.5087C169.54 58.6921 319.753 78.4446 344.219 71.337Z" fill="#28A745"/>
<g filter="url(#filter0_f_48_11968)">
<path fill-rule="evenodd" clip-rule="evenodd" d="M140.866 190.422C140.866 190.422 105.341 157.492 99.9098 152.9C99.9098 152.9 92.5142 182.762 132.089 199.339C132.089 199.339 138.775 198.865 140.866 190.422Z" fill="white"/>
</g>
<g filter="url(#filter1_f_48_11968)">
<path fill-rule="evenodd" clip-rule="evenodd" d="M224.057 217.728C224.057 217.728 187.321 198.071 210.248 188.284C210.248 188.284 254.603 190.336 252.949 225.746C252.949 225.746 252.154 231.548 224.057 217.728Z" fill="white"/>
</g>
</g>
<defs>
<filter id="filter0_f_48_11968" x="64.3624" y="117.9" width="111.504" height="116.44" filterUnits="userSpaceOnUse" color-interpolation-filters="sRGB">
<feFlood flood-opacity="0" result="BackgroundImageFix"/>
<feBlend mode="normal" in="SourceGraphic" in2="BackgroundImageFix" result="shape"/>
<feGaussianBlur stdDeviation="17.5" result="effect1_foregroundBlur_48_11968"/>
</filter>
<filter id="filter1_f_48_11968" x="167.717" y="153.284" width="120.277" height="108.67" filterUnits="userSpaceOnUse" color-interpolation-filters="sRGB">
<feFlood flood-opacity="0" result="BackgroundImageFix"/>
<feBlend mode="normal" in="SourceGraphic" in2="BackgroundImageFix" result="shape"/>
<feGaussianBlur stdDeviation="17.5" result="effect1_foregroundBlur_48_11968"/>
</filter>
<clipPath id="clip0_48_11968">
<rect width="346.667" height="346.667" fill="white"/>
</clipPath>
</defs>
</svg>
