<svg width="29" height="42" viewBox="0 0 29 42" fill="none" xmlns="http://www.w3.org/2000/svg">
<path d="M7.08 42C10.9882 42 14.16 38.864 14.16 35V27.9999H7.08C3.17184 27.9999 0 31.1359 0 35C0 38.864 3.17184 42 7.08 42Z" fill="#0ACF83"/>
<path d="M0 21.0001C0 17.1361 3.17184 14.0001 7.08 14.0001H14.16V28.0002H7.08C3.17184 28.0002 0 24.8642 0 21.0001Z" fill="#A259FF"/>
<path d="M0 7.00002C0 3.13601 3.17184 0 7.08 0H14.16V14H7.08C3.17184 14 0 10.864 0 7.00002Z" fill="#F24E1E"/>
<path d="M14.16 0H21.24C25.1481 0 28.32 3.13601 28.32 7.00002C28.32 10.864 25.1481 14 21.24 14H14.16V0Z" fill="#FF7262"/>
<path d="M28.32 21.0001C28.32 24.8642 25.1481 28.0002 21.24 28.0002C17.3318 28.0002 14.16 24.8642 14.16 21.0001C14.16 17.1361 17.3318 14.0001 21.24 14.0001C25.1481 14.0001 28.32 17.1361 28.32 21.0001Z" fill="#1ABCFE"/>
</svg>
