<svg width="208" height="54" viewBox="0 0 208 54" fill="none" xmlns="http://www.w3.org/2000/svg">
<g clip-path="url(#clip0_2_131)">
<path fill-rule="evenodd" clip-rule="evenodd" d="M31.9279 32.2117C31.9279 32.2117 36.2243 22.8996 44.5003 16.7771L45.5056 16.7383C45.523 15.9451 45.73 15.1782 46.1105 14.4976C46.1105 14.4976 44.9201 14.4842 43.721 13.4742L39.7852 18.727C39.7852 18.727 31.998 27.8869 30.12 31.4529C30.1278 31.4537 29.8982 32.3797 31.9279 32.2117Z" fill="black"/>
<path fill-rule="evenodd" clip-rule="evenodd" d="M24.1916 28.5031C24.1916 28.5031 23.7127 22.7297 17.5 20.5C11.2873 18.2703 6 21 4.00005 23.9998C2.0001 26.9996 0.122356 32.5517 4.85268 38.4017C4.85268 38.4017 8.61644 44.7696 17.0987 43.4261C17.0987 43.4261 19.1267 43.2158 19.4601 41.666L24.1916 28.5031Z" fill="#9F1239"/>
<path fill-rule="evenodd" clip-rule="evenodd" d="M33.5549 29.3945C33.5549 29.3945 28.6899 25.7073 24.224 27.3259C24.224 27.3259 19.022 28.9753 17.6723 35.0687C17.6723 35.0687 16.1009 43.563 24.2312 48.0388C24.2312 48.0388 30.3506 51.3064 35.2029 47.8283C35.2029 47.8283 41.8996 43.6892 40.9901 36.8549C40.993 36.8557 40.235 32.3705 33.5549 29.3945Z" fill="#F43F5E"/>
<path fill-rule="evenodd" clip-rule="evenodd" d="M21.442 26.8241C21.442 26.8241 20.2115 26.4184 20.5957 24.862L35.2342 16.6236L36.1209 17.2648L21.442 26.8241Z" fill="black"/>
<path fill-rule="evenodd" clip-rule="evenodd" d="M32.5 6C36.5 6.5 50.5418 11.9442 51.055 12.4487C46.1396 14.4392 24.7882 10.5152 21.6487 10.0536C24.3641 5.90301 28.5 5.5 32.5 6Z" fill="#28A745" fill-opacity="0.8"/>
<path fill-rule="evenodd" clip-rule="evenodd" d="M50.9899 12.433L51.0212 12.4615C50.6908 13.2037 49.3638 14.4968 49.3638 14.4968C43.416 20.5049 34.1169 16.8117 34.1169 16.8117C25.2381 14.4949 21.6487 10.0536 21.6487 10.0536C24.7828 10.5321 47.3193 13.5015 50.9899 12.433Z" fill="#28A745"/>
<g filter="url(#filter0_f_2_131)">
<path fill-rule="evenodd" clip-rule="evenodd" d="M20.4808 30.335C20.4808 30.335 15.1511 25.3847 14.3362 24.6943C14.3362 24.6943 13.2266 29.1835 19.164 31.6756C19.164 31.6756 20.1671 31.6042 20.4808 30.335Z" fill="white"/>
</g>
<g filter="url(#filter1_f_2_131)">
<path fill-rule="evenodd" clip-rule="evenodd" d="M32.9619 34.4399C32.9619 34.4399 27.4505 31.4849 30.8902 30.0137C30.8902 30.0137 37.5448 30.3222 37.2966 35.6453C37.2966 35.6453 37.1774 36.5175 32.9619 34.4399Z" fill="white"/>
</g>
</g>
<path fill-rule="evenodd" clip-rule="evenodd" d="M128.742 36.4433C125.041 39.6126 120.526 41.3628 115.86 41.3628C110.679 41.3628 107.558 39.1932 106.658 35.6602C103.378 38.9694 99.3042 41.251 96.0592 41.251C92.8638 41.251 91.7987 39.1829 91.7987 36.8912C91.7987 33.7051 94.7138 27.1653 94.7138 24.8736C94.7138 24.0352 94.3214 23.7557 93.8168 23.7557C92.1351 23.7557 88.5473 28.395 84.3989 38.5122C83.6701 40.3008 82.9974 41.1951 80.3066 41.1951C79.1293 41.1951 77.3915 41.0275 75.3734 40.8039C75.8164 39.7525 76.3029 38.373 76.8079 36.779C71.9749 41.1284 66.7126 43.0956 60.9171 43.0956C50.8825 43.0956 45.3887 36.8353 45.3887 27.6125C45.3887 14.2534 56.9369 0 71.1199 0C76.2213 0 80.8181 2.06814 80.8742 8.27257C80.8742 14.0298 75.7728 18.0543 71.0078 18.0543C67.9245 18.0543 66.6912 16.7687 66.6912 13.8062C67.2518 14.0298 67.9806 14.1975 68.6533 14.1975C71.5684 14.1975 73.8668 11.6263 73.8668 8.60794C73.8668 5.92495 72.2971 4.47166 69.4942 4.47166C62.5428 4.47166 54.8067 16.1539 54.8067 26.9976C54.8067 33.7051 58.1142 37.6178 64.4488 37.6178C69.326 37.6178 74.2592 35.2702 78.6318 30.3514C78.6353 30.3651 78.6387 30.3788 78.6421 30.3925C80.772 22.3474 82.7171 12.9361 82.7171 10.2289C82.7171 8.88742 82.4929 7.65771 81.8762 6.93107C84.3989 5.64547 86.9776 4.86293 88.8836 4.86293C90.4533 4.86293 91.4063 5.53368 91.4063 7.37824C91.4063 9.33459 89.6124 18.6692 87.4822 26.2151C92.3593 20.6814 96.788 17.7748 99.9273 17.7748C101.777 17.7748 103.123 18.8369 103.123 21.2963C103.123 25.4885 100.039 32.4195 100.039 34.8789C100.039 35.4938 100.208 35.7733 100.656 35.7733C101.559 35.7733 104.114 33.7323 106.596 31.1409C107.801 24.6098 114.078 17.7748 122.475 17.7748C126.847 17.7748 129.034 19.2281 129.034 22.3024C129.034 27.892 122.475 31.637 116.084 31.637H114.683C114.514 32.2518 114.458 32.9226 114.458 33.4256C114.458 35.7174 115.692 37.1707 118.382 37.1707C121.41 37.1707 125.39 35.7174 129.65 31.0221C129.743 30.9295 129.836 30.854 129.92 30.8049C132.017 28.1934 133.63 25.6584 134.483 23.588C134.651 23.1967 134.707 22.9731 134.707 22.8055C134.707 22.1347 133.25 21.7434 133.25 20.0666C133.25 18.7251 134.091 16.5451 136.725 14.2534C139.192 18.222 149.227 18.1661 149.227 23.3085C149.227 27.1094 145.583 32.8108 145.583 34.9348C145.583 35.6056 145.863 35.8851 146.256 35.8851C147.004 35.8851 149.377 34.3339 152.289 31.3669C154.61 28.5588 156.397 25.8066 157.311 23.588C157.479 23.1967 157.535 22.9731 157.535 22.8055C157.535 22.1347 156.078 21.7434 156.078 20.0666C156.078 18.7251 156.918 16.5451 159.553 14.2534C162.02 18.222 172.054 18.1661 172.054 23.3085C172.054 27.1094 168.411 32.8108 168.411 34.9348C168.411 35.6056 168.691 35.8851 169.083 35.8851C170.035 35.8851 173.611 33.3789 177.582 28.6447C178.444 25.903 179.298 23.2381 179.298 21.5758C179.298 20.6255 179.13 19.843 178.681 19.2281C180.811 18.2779 183.222 17.7748 184.679 17.7748C186.81 17.7748 187.707 18.781 187.707 20.6255C187.707 23.9793 183.951 32.8667 183.951 34.9348C183.951 35.7733 184.287 36.1645 184.904 36.1645C186.529 36.1645 190.454 32.4754 192.64 27.4448C193.649 25.209 194.322 22.3024 194.322 20.8491C194.322 20.2901 194.266 19.4517 194.153 18.9487C195.947 18.1661 198.134 17.7748 199.479 17.7748C201.497 17.7748 202.674 18.3897 202.674 20.2901C202.674 22.3583 199.815 31.3016 197.517 37.4501C200.712 35.2143 204.973 31.637 206.935 29.0099C207.215 28.6745 207.439 28.5068 207.608 28.5068C207.888 28.5068 208 28.7863 208 29.3453C208 31.5811 207.664 32.699 206.711 33.8169C204.468 36.4999 200.432 40.0213 195.891 42.9279C191.743 50.9769 186.866 53.9394 184.455 53.9394C182.717 53.9394 181.54 50.5856 181.54 48.6852C181.54 47.4555 184.119 44.7166 187.426 42.7043C188.043 42.3131 188.379 41.9777 188.547 41.6423C189.052 40.6921 190.173 37.5619 190.734 35.6056C185.408 39.9654 182.605 40.8598 179.802 40.8598C176.999 40.8598 175.822 38.9593 175.822 36.2763C175.822 35.8491 175.864 35.3798 175.937 34.8785C172.308 38.7467 168.198 41.251 164.879 41.251C161.852 41.251 160.674 39.4624 160.674 36.6676C160.674 33.4815 164.206 27.9479 164.206 26.0474C164.206 25.209 162.973 24.9295 161.347 24.0911C158.993 28.6745 155.741 33.1462 152.041 36.2763C151.929 36.3881 151.705 36.444 151.537 36.444C151.536 36.444 151.535 36.444 151.534 36.444C148.326 39.4088 144.898 41.251 142.051 41.251C139.024 41.251 137.847 39.4624 137.847 36.6676C137.847 33.4815 141.378 27.9479 141.378 26.0474C141.378 25.209 140.145 24.9295 138.519 24.0911C136.165 28.6745 132.913 33.1462 129.214 36.2763C129.109 36.3808 128.906 36.4365 128.742 36.4433ZM121.858 22.4142C121.858 21.2963 121.41 20.6255 120.569 20.6255C118.719 20.6255 116.589 23.6439 115.243 29.2335C118.775 28.8981 121.858 25.8238 121.858 22.4142Z" fill="black"/>
<defs>
<filter id="filter0_f_2_131" x="8.25407" y="18.6943" width="18.2268" height="18.9813" filterUnits="userSpaceOnUse" color-interpolation-filters="sRGB">
<feFlood flood-opacity="0" result="BackgroundImageFix"/>
<feBlend mode="normal" in="SourceGraphic" in2="BackgroundImageFix" result="shape"/>
<feGaussianBlur stdDeviation="3" result="effect1_foregroundBlur_2_131"/>
</filter>
<filter id="filter1_f_2_131" x="23.7603" y="24.0137" width="19.543" height="17.8133" filterUnits="userSpaceOnUse" color-interpolation-filters="sRGB">
<feFlood flood-opacity="0" result="BackgroundImageFix"/>
<feBlend mode="normal" in="SourceGraphic" in2="BackgroundImageFix" result="shape"/>
<feGaussianBlur stdDeviation="3" result="effect1_foregroundBlur_2_131"/>
</filter>
<clipPath id="clip0_2_131">
<rect width="51.7328" height="50.5069" fill="white" transform="translate(0 1.71631)"/>
</clipPath>
</defs>
</svg>
