<svg width="39" height="42" viewBox="0 0 39 42" fill="none" xmlns="http://www.w3.org/2000/svg">
<path d="M19.0196 24.6228C21.0205 24.6228 22.6424 23.0008 22.6424 21C22.6424 18.9992 21.0205 17.3772 19.0196 17.3772C17.0188 17.3772 15.3969 18.9992 15.3969 21C15.3969 23.0008 17.0188 24.6228 19.0196 24.6228Z" fill="#149ECA"/>
<path fill-rule="evenodd" clip-rule="evenodd" d="M6.58282 16.0621C3.36153 17.5117 1.8114 19.3275 1.8114 21C1.8114 22.6726 3.36153 24.4884 6.58282 25.9379C9.71909 27.3493 14.1154 28.2456 19.0197 28.2456C23.924 28.2456 28.3202 27.3493 31.4565 25.9379C34.6778 24.4884 36.2279 22.6726 36.2279 21C36.2279 19.3275 34.6778 17.5117 31.4565 16.0621C28.3202 14.6508 23.924 13.7545 19.0197 13.7545C14.1154 13.7545 9.71909 14.6508 6.58282 16.0621ZM5.83949 14.4103C9.25918 12.8714 13.9199 11.9431 19.0197 11.9431C24.1194 11.9431 28.7801 12.8714 32.1998 14.4103C35.5345 15.9109 38.0393 18.1707 38.0393 21C38.0393 23.8293 35.5345 26.0892 32.1998 27.5898C28.7801 29.1287 24.1194 30.057 19.0197 30.057C13.9199 30.057 9.25918 29.1287 5.83949 27.5898C2.50481 26.0892 0 23.8293 0 21C0 18.1707 2.50481 15.9109 5.83949 14.4103Z" fill="#149ECA"/>
<path fill-rule="evenodd" clip-rule="evenodd" d="M17.0776 7.76043C14.2116 5.6955 11.864 5.26095 10.4156 6.09721C8.96713 6.93347 8.16967 9.18383 8.52494 12.6983C8.87084 16.1201 10.2927 20.3756 12.7448 24.6228C15.197 28.87 18.1714 32.2291 20.9618 34.2396C23.8278 36.3045 26.1754 36.7391 27.6238 35.9028C29.0723 35.0665 29.8697 32.8162 29.5145 29.3017C29.1686 25.8799 27.7467 21.6244 25.2946 17.3772C22.8424 13.13 19.868 9.77086 17.0776 7.76043ZM18.1365 6.29076C21.1791 8.48287 24.3134 12.055 26.8633 16.4715C29.4132 20.888 30.9395 25.3885 31.3167 29.1195C31.6845 32.7577 30.9798 36.0569 28.5295 37.4715C26.0793 38.8862 22.8698 37.8469 19.9029 35.7092C16.8604 33.5171 13.726 29.945 11.1761 25.5285C8.62625 21.112 7.09988 16.6115 6.72273 12.8805C6.35495 9.24229 7.05962 5.94315 9.50988 4.52849C11.9601 3.11384 15.1696 4.15315 18.1365 6.29076Z" fill="#149ECA"/>
<path fill-rule="evenodd" clip-rule="evenodd" d="M29.5145 12.6984C29.8697 9.18385 29.0723 6.93349 27.6238 6.09723C26.1754 5.26097 23.8278 5.69553 20.9618 7.76046C18.1714 9.77089 15.197 13.13 12.7448 17.3772C10.2927 21.6245 8.87083 25.8799 8.52493 29.3017C8.16966 32.8162 8.96713 35.0666 10.4156 35.9028C11.864 36.7391 14.2116 36.3045 17.0776 34.2396C19.868 32.2292 22.8424 28.8701 25.2946 24.6228C27.7467 20.3756 29.1686 16.1201 29.5145 12.6984ZM31.3167 12.8805C30.9395 16.6115 29.4132 21.112 26.8633 25.5285C24.3134 29.945 21.179 33.5172 18.1365 35.7093C15.1696 37.8469 11.9601 38.8862 9.50987 37.4715C7.05962 36.0569 6.35494 32.7577 6.72272 29.1195C7.09988 25.3885 8.62624 20.8881 11.1761 16.4715C13.726 12.055 16.8604 8.48289 19.9029 6.29079C22.8698 4.15317 26.0793 3.11386 28.5295 4.52852C30.9798 5.94317 31.6845 9.24232 31.3167 12.8805Z" fill="#149ECA"/>
</svg>
