<svg width="49" height="72" viewBox="0 0 49 72" fill="none" xmlns="http://www.w3.org/2000/svg">
<path fill-rule="evenodd" clip-rule="evenodd" d="M13.2292 4C10.7814 4 8.43397 4.97236 6.70316 6.70316C4.97236 8.43397 4 10.7814 4 13.2292C4 15.6769 4.97236 18.0244 6.70316 19.7552C8.43397 21.486 10.7814 22.4583 13.2292 22.4583H22.4583V4H13.2292ZM3.87473 3.87473C6.35568 1.39378 9.72057 0 13.2292 0H24.4583C25.5629 0 26.4583 0.89543 26.4583 2V24.4583C26.4583 25.5629 25.5629 26.4583 24.4583 26.4583H13.2292C9.72057 26.4583 6.35568 25.0646 3.87473 22.5836C1.39378 20.1027 0 16.7378 0 13.2292C0 9.72057 1.39378 6.35568 3.87473 3.87473Z" fill="white"/>
<path fill-rule="evenodd" clip-rule="evenodd" d="M22.4583 2C22.4583 0.89543 23.3538 0 24.4583 0H35.6875C37.4248 0 39.1451 0.342182 40.7501 1.00701C42.3551 1.67184 43.8135 2.64629 45.0419 3.87473C46.2704 5.10318 47.2448 6.56155 47.9097 8.16658C48.5745 9.77162 48.9167 11.4919 48.9167 13.2292C48.9167 14.9664 48.5745 16.6867 47.9097 18.2918C47.2448 19.8968 46.2704 21.3552 45.0419 22.5836C43.8135 23.812 42.3551 24.7865 40.7501 25.4513C39.1451 26.1162 37.4248 26.4583 35.6875 26.4583H24.4583C23.3538 26.4583 22.4583 25.5629 22.4583 24.4583V2ZM26.4583 4V22.4583H35.6875C36.8995 22.4583 38.0996 22.2196 39.2194 21.7558C40.3391 21.292 41.3565 20.6122 42.2135 19.7552C43.0705 18.8982 43.7503 17.8808 44.2141 16.761C44.678 15.6413 44.9167 14.4412 44.9167 13.2292C44.9167 12.0172 44.678 10.8171 44.2141 9.69732C43.7503 8.57758 43.0705 7.56017 42.2135 6.70316C41.3565 5.84615 40.3391 5.16634 39.2194 4.70253C38.0996 4.23872 36.8995 4 35.6875 4H26.4583Z" fill="white"/>
<path fill-rule="evenodd" clip-rule="evenodd" d="M35.6875 26.4584C34.4755 26.4584 33.2754 26.6971 32.1557 27.1609C31.0359 27.6247 30.0185 28.3045 29.1615 29.1615C28.3045 30.0185 27.6247 31.036 27.1609 32.1557C26.6971 33.2754 26.4583 34.4755 26.4583 35.6875C26.4583 36.8995 26.6971 38.0997 27.1609 39.2194C27.6247 40.3391 28.3045 41.3565 29.1615 42.2135C30.0185 43.0706 31.0359 43.7504 32.1557 44.2142C33.2754 44.678 34.4755 44.9167 35.6875 44.9167C36.8995 44.9167 38.0996 44.678 39.2194 44.2142C40.3391 43.7504 41.3565 43.0706 42.2135 42.2135C43.0705 41.3565 43.7503 40.3391 44.2141 39.2194C44.678 38.0997 44.9167 36.8995 44.9167 35.6875C44.9167 34.4756 44.678 33.2754 44.2141 32.1557C43.7503 31.036 43.0705 30.0185 42.2135 29.1615C41.3565 28.3045 40.3391 27.6247 39.2194 27.1609C38.0996 26.6971 36.8995 26.4584 35.6875 26.4584ZM30.6249 23.4654C32.23 22.8006 33.9502 22.4584 35.6875 22.4584C37.4248 22.4584 39.1451 22.8006 40.7501 23.4654C42.3551 24.1302 43.8135 25.1047 45.0419 26.3331C46.2704 27.5616 47.2448 29.0199 47.9097 30.625C48.5745 32.23 48.9167 33.9503 48.9167 35.6875C48.9167 37.4248 48.5745 39.1451 47.9097 40.7501C47.2448 42.3552 46.2704 43.8135 45.0419 45.042C43.8135 46.2704 42.3551 47.2449 40.7501 47.9097C39.1451 48.5745 37.4248 48.9167 35.6875 48.9167C33.9502 48.9167 32.23 48.5745 30.6249 47.9097C29.0199 47.2449 27.5615 46.2704 26.3331 45.042C25.1046 43.8135 24.1302 42.3552 23.4654 40.7501C22.8005 39.1451 22.4583 37.4248 22.4583 35.6875C22.4583 33.9503 22.8005 32.23 23.4654 30.625C24.1302 29.0199 25.1046 27.5615 26.3331 26.3331C27.5615 25.1047 29.0199 24.1302 30.6249 23.4654Z" fill="white"/>
<path fill-rule="evenodd" clip-rule="evenodd" d="M13.2292 48.9167C10.7814 48.9167 8.43397 49.8891 6.70316 51.6199C4.97236 53.3507 4 55.6982 4 58.1459C4 60.5936 4.97236 62.9411 6.70316 64.6719C8.43397 66.4027 10.7814 67.3751 13.2292 67.3751C15.6769 67.3751 18.0244 66.4027 19.7552 64.6719C21.486 62.9411 22.4583 60.5936 22.4583 58.1459V48.9167H13.2292ZM3.87473 48.7915C6.35568 46.3105 9.72058 44.9167 13.2292 44.9167H24.4583C25.5629 44.9167 26.4583 45.8122 26.4583 46.9167V58.1459C26.4583 61.6545 25.0646 65.0194 22.5836 67.5004C20.1026 69.9813 16.7378 71.3751 13.2292 71.3751C9.72058 71.3751 6.35568 69.9813 3.87473 67.5004C1.39378 65.0194 0 61.6545 0 58.1459C0 54.6373 1.39378 51.2724 3.87473 48.7915Z" fill="white"/>
<path fill-rule="evenodd" clip-rule="evenodd" d="M13.2292 26.4584C10.7814 26.4584 8.43397 27.4307 6.70316 29.1615C4.97236 30.8923 4 33.2398 4 35.6875C4 38.1353 4.97236 40.4827 6.70316 42.2135C8.43397 43.9444 10.7814 44.9167 13.2292 44.9167H22.4583V26.4584H13.2292ZM3.87473 26.3331C6.35568 23.8522 9.72057 22.4584 13.2292 22.4584H24.4583C25.5629 22.4584 26.4583 23.3538 26.4583 24.4584V46.9167C26.4583 48.0213 25.5629 48.9167 24.4583 48.9167H13.2292C9.72057 48.9167 6.35568 47.5229 3.87473 45.042C1.39378 42.561 0 39.1961 0 35.6875C0 32.1789 1.39378 28.8141 3.87473 26.3331Z" fill="white"/>
</svg>
