<svg width="85" height="93" viewBox="0 0 85 93" fill="none" xmlns="http://www.w3.org/2000/svg">
<path d="M42.1149 54.5219C46.5453 54.5219 50.1368 50.9304 50.1368 46.5C50.1368 42.0697 46.5453 38.4781 42.1149 38.4781C37.6845 38.4781 34.093 42.0697 34.093 46.5C34.093 50.9304 37.6845 54.5219 42.1149 54.5219Z" fill="white"/>
<path fill-rule="evenodd" clip-rule="evenodd" d="M14.5762 35.5661C7.4434 38.7759 4.01095 42.7966 4.01095 46.5001C4.01095 50.2035 7.4434 54.2242 14.5762 57.434C21.5209 60.5591 31.2555 62.5438 42.115 62.5438C52.9745 62.5438 62.7091 60.5591 69.6537 57.434C76.7865 54.2242 80.219 50.2035 80.219 46.5001C80.219 42.7966 76.7865 38.7759 69.6537 35.5661C62.7091 32.4411 52.9745 30.4563 42.115 30.4563C31.2555 30.4563 21.5209 32.4411 14.5762 35.5661ZM12.9303 31.9085C20.5025 28.501 30.8226 26.4453 42.115 26.4453C53.4073 26.4453 63.7275 28.501 71.2996 31.9085C78.6836 35.2312 84.2299 40.2352 84.2299 46.5001C84.2299 52.765 78.6836 57.7689 71.2996 61.0917C63.7275 64.4991 53.4073 66.5548 42.115 66.5548C30.8226 66.5548 20.5025 64.4991 12.9303 61.0917C5.54637 57.7689 0 52.765 0 46.5001C0 40.2352 5.54637 35.2312 12.9303 31.9085Z" fill="white"/>
<path fill-rule="evenodd" clip-rule="evenodd" d="M37.8147 17.1838C31.4685 12.6115 26.2702 11.6492 23.063 13.501C19.8557 15.3527 18.0899 20.3356 18.8766 28.1177C19.6425 35.6945 22.7909 45.1173 28.2206 54.5219C33.6504 63.9265 40.2366 71.3645 46.4153 75.8162C52.7615 80.3885 57.9597 81.3508 61.167 79.499C64.3743 77.6473 66.1401 72.6644 65.3534 64.8823C64.5875 57.3055 61.4391 47.8827 56.0093 38.4781C50.5796 29.0735 43.9934 21.6355 37.8147 17.1838ZM40.1593 13.9295C46.8964 18.7835 53.8367 26.6932 59.4829 36.4726C65.1291 46.2521 68.5089 56.2174 69.344 64.4789C70.1584 72.5349 68.598 79.8402 63.1725 82.9726C57.7469 86.1051 50.6402 83.8037 44.0706 79.0705C37.3336 74.2165 30.3932 66.3068 24.7471 56.5274C19.1009 46.7479 15.7211 36.7826 14.886 28.5211C14.0716 20.4651 15.6319 13.1598 21.0575 10.0274C26.4831 6.89492 33.5898 9.19625 40.1593 13.9295Z" fill="white"/>
<path fill-rule="evenodd" clip-rule="evenodd" d="M65.3534 28.1177C66.1401 20.3356 64.3743 15.3526 61.167 13.5009C57.9597 11.6492 52.7615 12.6114 46.4153 17.1838C40.2366 21.6354 33.6504 29.0734 28.2207 38.4781C22.7909 47.8827 19.6425 57.3055 18.8766 64.8822C18.0899 72.6643 19.8557 77.6473 23.063 79.499C26.2703 81.3507 31.4685 80.3885 37.8147 75.8161C43.9934 71.3645 50.5796 63.9265 56.0093 54.5218C61.4391 45.1172 64.5875 35.6944 65.3534 28.1177ZM69.344 28.5211C68.5089 36.7825 65.1291 46.7478 59.4829 56.5273C53.8367 66.3068 46.8964 74.2165 40.1594 79.0704C33.5898 83.8037 26.4831 86.105 21.0575 82.9726C15.632 79.8401 14.0716 72.5349 14.886 64.4788C15.7211 56.2174 19.1009 46.252 24.7471 36.4726C30.3933 26.6931 37.3336 18.7834 44.0706 13.9295C50.6402 9.1962 57.7469 6.89487 63.1725 10.0273C68.5981 13.1598 70.1584 20.465 69.344 28.5211Z" fill="white"/>
</svg>
