<svg width="77" height="77" viewBox="0 0 77 77" fill="none" xmlns="http://www.w3.org/2000/svg">
<path fill-rule="evenodd" clip-rule="evenodd" d="M8.1994 54.7518C10.1143 53.1386 12.5575 52.2892 15.0602 52.3666C17.5635 52.444 19.9499 53.4432 21.7616 55.1723L21.7859 55.1959C25.5402 58.9026 25.5271 64.9186 22.2472 68.8015C20.8125 70.5084 18.7737 71.8265 16.6809 72.8488C14.5642 73.8826 12.2521 74.6809 10.14 75.285C8.0215 75.891 6.06226 76.3135 4.63433 76.5846C3.91898 76.7205 3.33351 76.819 2.92386 76.8839C2.71895 76.9164 2.5578 76.9405 2.44612 76.9567C2.39028 76.9649 2.34678 76.971 2.31635 76.9753L2.28058 76.9802L2.26693 76.9821L2.26577 76.9822C2.26533 76.9823 2.26493 76.9823 1.99991 75C0.0175489 74.7349 0.0176015 74.7345 0.0176611 74.7341L0.0182588 74.7297L0.0196681 74.7193L0.0246068 74.6835C0.0288489 74.6531 0.0350015 74.6096 0.0431229 74.5537C0.0593635 74.4421 0.0834906 74.2809 0.115973 74.076C0.180912 73.6664 0.279396 73.0809 0.415222 72.3655C0.686348 70.9376 1.10886 68.9784 1.71483 66.8599C2.31898 64.7478 3.11723 62.4356 4.15111 60.319C5.17356 58.2258 6.49199 56.1865 8.1994 54.7518ZM1.99991 75L0.0176611 74.7341C-0.0649179 75.3518 0.145039 75.9735 0.585698 76.4142C1.02636 76.8548 1.64808 77.0648 2.26577 76.9822L1.99991 75ZM4.45556 72.5443C5.72828 72.2901 7.33331 71.9274 9.03994 71.4393C11.0177 70.8736 13.0902 70.151 14.9253 69.2546C16.7834 68.347 18.2626 67.3261 19.1863 66.2265L19.1902 66.2218C21.2204 63.8199 21.1357 60.1882 18.9875 58.0541C17.8905 57.0129 16.4487 56.4114 14.9365 56.3646C13.4187 56.3177 11.937 56.833 10.7759 57.8115L10.7734 57.8136C9.67375 58.7373 8.65284 60.2165 7.74527 62.0746C6.84888 63.9097 6.12631 65.9822 5.5606 67.9599C5.07243 69.6666 4.7098 71.2716 4.45556 72.5443Z" fill="white"/>
<path fill-rule="evenodd" clip-rule="evenodd" d="M72.9589 4.0328C65.7748 4.30361 58.7428 6.24734 52.4272 9.72092C45.5185 13.5208 39.6967 19.0249 35.5157 25.7099L35.5044 25.7278C32.8233 29.9153 30.5372 34.3418 28.675 38.9501L38.0546 48.3297C42.718 46.4713 47.2009 44.1865 51.4462 41.504C68.979 29.737 72.5621 14.0289 72.9589 4.0328ZM50.4996 6.21606C58.0063 2.08736 66.4445 -0.0521708 75.0115 0.000966149C76.1112 0.00778695 76.9991 0.901199 76.9991 2.00093C76.9991 12.5757 73.9414 31.2369 53.6516 44.8412C53.6368 44.8511 53.6218 44.8608 53.6067 44.8704C48.7652 47.9319 43.6287 50.5001 38.2746 52.5365C37.5384 52.8165 36.7063 52.6383 36.1494 52.0813L24.9187 40.8507C24.3595 40.2914 24.1823 39.4551 24.4668 38.7171C26.506 33.4266 29.0734 28.3552 32.1301 23.5798C36.6725 16.3203 42.996 10.343 50.4996 6.21606Z" fill="white"/>
<path fill-rule="evenodd" clip-rule="evenodd" d="M20.7706 24.7481C18.9109 24.9209 17.349 25.3686 16.213 26.1256C14.0794 27.5538 12.385 30.7356 11.2034 33.9931C10.7445 35.258 10.3899 36.4568 10.1303 37.4365H26.333C27.4376 37.4365 28.333 38.3319 28.333 39.4365C28.333 40.5411 27.4376 41.4365 26.333 41.4365H7.61525C7.02231 41.4365 6.45993 41.1734 6.07993 40.7182C5.69994 40.263 5.54151 39.6627 5.64741 39.0793L7.61525 39.4365C5.64741 39.0793 5.64732 39.0798 5.64741 39.0793L5.64836 39.0741L5.65008 39.0647L5.65585 39.0338C5.66074 39.0079 5.66771 38.9713 5.67681 38.9247C5.69502 38.8315 5.72176 38.6982 5.75736 38.5293C5.82854 38.1918 5.93537 37.7114 6.0806 37.1259C6.37031 35.9579 6.81652 34.3566 7.44311 32.6291C8.64778 29.308 10.6964 25.0035 13.9903 22.8L13.993 22.7982C15.8891 21.5341 18.1826 20.9714 20.4004 20.7652C22.6355 20.5575 24.9431 20.6986 26.9911 20.9626C29.0469 21.2275 30.8952 21.6235 32.2271 21.9519C32.8948 22.1165 33.4372 22.2653 33.8161 22.374C34.0057 22.4284 34.1546 22.4728 34.2583 22.5044C34.3101 22.5201 34.3506 22.5326 34.3792 22.5416L34.4132 22.5522L34.4233 22.5554L34.4279 22.5569C34.4284 22.557 34.4288 22.5572 33.864 24.325L34.4279 22.5569C35.4801 22.8931 36.0614 24.0189 35.7252 25.071C35.3891 26.1229 34.2642 26.7033 33.2123 26.3677C33.212 26.3676 33.2125 26.3678 33.2123 26.3677L33.2087 26.3665L33.188 26.3601C33.1684 26.3539 33.1371 26.3443 33.0948 26.3314C33.0101 26.3057 32.8813 26.2672 32.7131 26.2189C32.3763 26.1223 31.8828 25.9868 31.2695 25.8356C30.0394 25.5323 28.3453 25.1702 26.4798 24.9297C24.6064 24.6883 22.6137 24.5768 20.7706 24.7481Z" fill="white"/>
<path fill-rule="evenodd" clip-rule="evenodd" d="M51.9291 41.2749C52.9812 40.9387 54.1067 41.5191 54.4429 42.5712L52.5944 43.1619C54.4429 42.5713 54.4428 42.5708 54.4429 42.5712L54.4447 42.5768L54.4479 42.5869L54.4585 42.6209C54.4675 42.6495 54.48 42.69 54.4957 42.7418C54.5273 42.8455 54.5717 42.9944 54.6261 43.184C54.7348 43.5629 54.8836 44.1053 55.0482 44.773C55.3766 46.1049 55.7726 47.9532 56.0375 50.009C56.3015 52.0569 56.4426 54.3646 56.2349 56.5997C56.0287 58.8175 55.466 61.111 54.2019 63.0071L54.2001 63.0098C51.9966 66.3037 47.6921 68.3523 44.371 69.557C42.6435 70.1836 41.0422 70.6298 39.8742 70.9195C39.2887 71.0647 38.8083 71.1716 38.4708 71.2427C38.3019 71.2783 38.1686 71.3051 38.0754 71.3233C38.0288 71.3324 37.9922 71.3394 37.9663 71.3442L37.9354 71.35L37.926 71.3517L37.9217 71.3525C37.9212 71.3526 37.9208 71.3527 37.5636 69.3848L37.9217 71.3525C37.3383 71.4584 36.7371 71.3002 36.2819 70.9202C35.8267 70.5402 35.5636 69.9778 35.5636 69.3848V50.6671C35.5636 49.5625 36.459 48.6671 37.5636 48.6671C38.6682 48.6671 39.5636 49.5625 39.5636 50.6671V66.8698C40.5433 66.6102 41.7421 66.2556 43.007 65.7967C46.2644 64.6152 49.4462 62.9208 50.8744 60.7873C51.6314 59.6512 52.0792 58.0893 52.252 56.2295C52.4233 54.3864 52.3118 52.3937 52.0704 50.5203C51.8299 48.6548 51.4678 46.9607 51.1645 45.7306C51.0133 45.1173 50.8778 44.6238 50.7812 44.287C50.7329 44.1188 50.6944 43.99 50.6687 43.9053C50.6558 43.863 50.6462 43.8317 50.64 43.8121L50.6336 43.7914L50.6327 43.7887C50.6326 43.7885 50.6328 43.7889 50.6327 43.7887M51.9291 41.2749C50.8771 41.611 50.297 42.7367 50.6327 43.7887L51.9291 41.2749Z" fill="white"/>
</svg>
